<svg width="224" height="75" viewBox="0 0 224 75" fill="none" xmlns="http://www.w3.org/2000/svg">
<path d="M11.8211 27.92L22.4411 50H18.5711L16.6811 45.68H6.57113L4.68113 50H0.931133L11.4911 27.92H11.8211ZM10.3211 37.31L7.92113 42.65H15.3611L12.9911 37.34L11.7011 34.31H11.6411L10.3211 37.31ZM28.4088 50.3C26.5088 50.3 25.1988 49.74 24.4788 48.62C23.7788 47.5 23.4288 45.94 23.4288 43.94V36.23H26.6688V43.13C26.6688 44.27 26.7288 45.16 26.8488 45.8C26.9888 46.42 27.2488 46.88 27.6288 47.18C28.0288 47.48 28.6188 47.63 29.3988 47.63C29.9588 47.63 30.4988 47.47 31.0188 47.15C31.5388 46.83 31.9588 46.4 32.2788 45.86C32.6188 45.3 32.7888 44.69 32.7888 44.03V36.23H35.9988V50H33.3588L32.9988 47.99C32.4988 48.77 31.8688 49.35 31.1088 49.73C30.3688 50.11 29.4688 50.3 28.4088 50.3ZM41.5087 38.87H39.0787V36.23H41.5087V30.62L44.7787 29.9V36.23H47.9587V38.87H44.7787V50H41.5087V38.87ZM57.0119 50.3C55.5919 50.3 54.3319 49.98 53.2319 49.34C52.1319 48.7 51.2819 47.83 50.6819 46.73C50.0819 45.63 49.7819 44.41 49.7819 43.07C49.7819 41.75 50.0719 40.54 50.6519 39.44C51.2519 38.34 52.1019 37.47 53.2019 36.83C54.3019 36.19 55.5719 35.87 57.0119 35.87C58.4519 35.87 59.7119 36.19 60.7919 36.83C61.8919 37.47 62.7319 38.34 63.3119 39.44C63.9119 40.54 64.2119 41.75 64.2119 43.07C64.2119 44.41 63.9119 45.63 63.3119 46.73C62.7119 47.83 61.8619 48.7 60.7619 49.34C59.6819 49.98 58.4319 50.3 57.0119 50.3ZM57.1019 47.66C58.2619 47.66 59.1719 47.23 59.8319 46.37C60.5119 45.51 60.8519 44.43 60.8519 43.13C60.8519 41.83 60.4919 40.74 59.7719 39.86C59.0519 38.96 58.1019 38.51 56.9219 38.51C55.7819 38.51 54.8619 38.95 54.1619 39.83C53.4819 40.71 53.1419 41.81 53.1419 43.13C53.1419 44.41 53.5119 45.49 54.2519 46.37C54.9919 47.23 55.9419 47.66 57.1019 47.66Z" fill="#FEB139"/>
<path d="M72.952 50.3C71.752 50.3 70.562 50.09 69.382 49.67C68.202 49.25 67.352 48.78 66.832 48.26L68.422 45.41C68.842 45.79 69.492 46.19 70.372 46.61C71.272 47.01 72.132 47.21 72.952 47.21C74.012 47.21 74.872 46.96 75.532 46.46C76.212 45.96 76.552 45.27 76.552 44.39C76.552 43.71 76.372 43.12 76.012 42.62C75.652 42.12 75.212 41.71 74.692 41.39C74.172 41.05 73.432 40.64 72.472 40.16C71.332 39.6 70.552 39.18 70.132 38.9C68.192 37.6 67.222 35.8 67.222 33.5C67.222 31.6 67.852 30.15 69.112 29.15C70.372 28.13 71.962 27.62 73.882 27.62C75.942 27.62 77.692 28.21 79.132 29.39L77.542 32.12C77.162 31.72 76.622 31.38 75.922 31.1C75.242 30.8 74.512 30.65 73.732 30.65C72.732 30.65 71.942 30.88 71.362 31.34C70.802 31.78 70.522 32.44 70.522 33.32C70.522 33.94 70.702 34.5 71.062 35C71.422 35.48 71.872 35.9 72.412 36.26C72.972 36.62 73.722 37.06 74.662 37.58C75.562 38.08 76.252 38.48 76.732 38.78C77.212 39.06 77.662 39.4 78.082 39.8C78.662 40.32 79.132 40.94 79.492 41.66C79.852 42.38 80.032 43.17 80.032 44.03C80.032 45.37 79.722 46.51 79.102 47.45C78.502 48.39 77.662 49.1 76.582 49.58C75.522 50.06 74.312 50.3 72.952 50.3ZM89.9437 50.3C88.3037 50.3 86.9337 49.98 85.8337 49.34C84.7337 48.68 83.9237 47.81 83.4037 46.73C82.8837 45.63 82.6237 44.43 82.6237 43.13C82.6237 41.67 82.9237 40.39 83.5237 39.29C84.1437 38.19 84.9937 37.35 86.0737 36.77C87.1537 36.17 88.3737 35.87 89.7337 35.87C91.8537 35.87 93.4237 36.46 94.4437 37.64C95.4837 38.8 96.0037 40.44 96.0037 42.56C96.0037 43.1 95.9737 43.66 95.9137 44.24H86.0137C86.2337 45.46 86.6637 46.34 87.3037 46.88C87.9637 47.42 88.8737 47.69 90.0337 47.69C90.9937 47.69 91.7837 47.61 92.4037 47.45C93.0237 47.29 93.5937 47.07 94.1137 46.79L95.1037 49.1C94.6037 49.42 93.9237 49.7 93.0637 49.94C92.2037 50.18 91.1637 50.3 89.9437 50.3ZM92.8537 41.99C92.8737 40.75 92.6037 39.88 92.0437 39.38C91.4837 38.86 90.6837 38.6 89.6437 38.6C87.5437 38.6 86.3337 39.73 86.0137 41.99H92.8537ZM106.091 57.2C105.071 57.2 104.061 57.06 103.061 56.78C102.081 56.5 101.381 56.24 100.961 56L101.681 53C103.001 53.86 104.441 54.29 106.001 54.29C107.201 54.29 108.211 54 109.031 53.42C109.851 52.84 110.271 51.71 110.291 50.03V47.57C109.871 48.35 109.191 49 108.251 49.52C107.311 50.04 106.271 50.3 105.131 50.3C103.931 50.3 102.831 50.01 101.831 49.43C100.831 48.83 100.041 47.98 99.4605 46.88C98.8805 45.78 98.5905 44.5 98.5905 43.04C98.5905 41.64 98.8605 40.4 99.4005 39.32C99.9605 38.22 100.751 37.37 101.771 36.77C102.791 36.17 103.981 35.87 105.341 35.87C106.141 35.87 106.891 36.01 107.591 36.29C108.291 36.57 108.881 36.92 109.361 37.34C109.861 37.74 110.191 38.14 110.351 38.54L110.411 36.23H113.471V49.91C113.471 52.25 112.871 54.05 111.671 55.31C110.471 56.57 108.611 57.2 106.091 57.2ZM106.031 47.57C107.171 47.57 108.131 47.18 108.911 46.4C109.691 45.6 110.081 44.56 110.081 43.28V43.07C110.081 42.21 109.901 41.44 109.541 40.76C109.181 40.08 108.691 39.55 108.071 39.17C107.451 38.79 106.771 38.6 106.031 38.6C104.751 38.6 103.761 39.02 103.061 39.86C102.361 40.68 102.011 41.75 102.011 43.07C102.011 44.41 102.351 45.5 103.031 46.34C103.731 47.16 104.731 47.57 106.031 47.57ZM122.393 50.3C120.493 50.3 119.183 49.74 118.463 48.62C117.763 47.5 117.413 45.94 117.413 43.94V36.23H120.653V43.13C120.653 44.27 120.713 45.16 120.833 45.8C120.973 46.42 121.233 46.88 121.613 47.18C122.013 47.48 122.603 47.63 123.383 47.63C123.943 47.63 124.483 47.47 125.003 47.15C125.523 46.83 125.943 46.4 126.263 45.86C126.603 45.3 126.773 44.69 126.773 44.03V36.23H129.983V50H127.343L126.983 47.99C126.483 48.77 125.853 49.35 125.093 49.73C124.353 50.11 123.453 50.3 122.393 50.3ZM134.203 36.23H137.443V38.93C137.763 38.01 138.283 37.27 139.003 36.71C139.723 36.15 140.543 35.87 141.463 35.87C142.103 35.87 142.543 35.93 142.783 36.05L142.333 39.32C142.153 39.2 141.763 39.14 141.163 39.14C140.223 39.14 139.363 39.44 138.583 40.04C137.823 40.64 137.443 41.6 137.443 42.92V50H134.203V36.23ZM151.494 50.3C150.074 50.3 148.814 49.98 147.714 49.34C146.614 48.7 145.764 47.83 145.164 46.73C144.564 45.63 144.264 44.41 144.264 43.07C144.264 41.75 144.554 40.54 145.134 39.44C145.734 38.34 146.584 37.47 147.684 36.83C148.784 36.19 150.054 35.87 151.494 35.87C152.934 35.87 154.194 36.19 155.274 36.83C156.374 37.47 157.214 38.34 157.794 39.44C158.394 40.54 158.694 41.75 158.694 43.07C158.694 44.41 158.394 45.63 157.794 46.73C157.194 47.83 156.344 48.7 155.244 49.34C154.164 49.98 152.914 50.3 151.494 50.3ZM151.584 47.66C152.744 47.66 153.654 47.23 154.314 46.37C154.994 45.51 155.334 44.43 155.334 43.13C155.334 41.83 154.974 40.74 154.254 39.86C153.534 38.96 152.584 38.51 151.404 38.51C150.264 38.51 149.344 38.95 148.644 39.83C147.964 40.71 147.624 41.81 147.624 43.13C147.624 44.41 147.994 45.49 148.734 46.37C149.474 47.23 150.424 47.66 151.584 47.66ZM166.894 50.3C165.934 50.3 164.934 50.18 163.894 49.94C162.874 49.68 162.144 49.38 161.704 49.04L162.784 46.49C163.984 47.33 165.354 47.75 166.894 47.75C168.434 47.75 169.204 47.3 169.204 46.4C169.204 46 169.044 45.69 168.724 45.47C168.404 45.25 167.834 44.99 167.014 44.69L165.874 44.27C164.674 43.79 163.724 43.22 163.024 42.56C162.324 41.88 161.974 40.99 161.974 39.89C161.974 38.63 162.464 37.65 163.444 36.95C164.444 36.23 165.774 35.87 167.434 35.87C168.254 35.87 169.054 35.96 169.834 36.14C170.634 36.32 171.244 36.55 171.664 36.83L170.494 39.41C170.234 39.15 169.814 38.93 169.234 38.75C168.674 38.55 168.044 38.45 167.344 38.45C165.924 38.45 165.214 38.88 165.214 39.74C165.214 40.22 165.404 40.59 165.784 40.85C166.164 41.09 166.784 41.36 167.644 41.66C167.724 41.68 168.034 41.79 168.574 41.99C169.854 42.49 170.804 43.06 171.424 43.7C172.044 44.34 172.354 45.16 172.354 46.16C172.354 47.52 171.834 48.55 170.794 49.25C169.774 49.95 168.474 50.3 166.894 50.3Z" fill="white"/>
<path d="M222.827 29.1667H216.98L215.355 24.8333C213.685 20.3781 209.7 17.5 205.201 17.5H192.798C188.3 17.5 184.314 20.3781 182.643 24.8333L181.018 29.1667H175.172C174.41 29.1667 173.85 29.9312 174.036 30.7198L174.622 33.2198C174.752 33.776 175.22 34.1667 175.758 34.1667H177.718C176.407 35.3885 175.562 37.1646 175.562 39.1667V44.1667C175.562 45.8458 176.164 47.3615 177.125 48.5344V54.1667C177.125 56.0073 178.524 57.5 180.25 57.5H183.375C185.1 57.5 186.5 56.0073 186.5 54.1667V50.8333H211.5V54.1667C211.5 56.0073 212.899 57.5 214.625 57.5H217.75C219.475 57.5 220.875 56.0073 220.875 54.1667V48.5344C221.836 47.3625 222.437 45.8469 222.437 44.1667V39.1667C222.437 37.1646 221.592 35.3885 220.282 34.1667H222.242C222.78 34.1667 223.249 33.776 223.379 33.2198L223.965 30.7198C224.149 29.9312 223.59 29.1667 222.827 29.1667ZM188.446 27.3094C189.158 25.4115 190.882 24.1667 192.798 24.1667H205.201C207.118 24.1667 208.841 25.4115 209.553 27.3094L211.5 32.5H186.5L188.446 27.3094ZM183.375 44.1458C181.5 44.1458 180.25 42.8167 180.25 40.8229C180.25 38.8292 181.5 37.5 183.375 37.5C185.25 37.5 188.062 40.4906 188.062 42.4844C188.062 44.4781 185.25 44.1458 183.375 44.1458ZM214.625 44.1458C212.75 44.1458 209.937 44.4781 209.937 42.4844C209.937 40.4906 212.75 37.5 214.625 37.5C216.5 37.5 217.75 38.8292 217.75 40.8229C217.75 42.8167 216.5 44.1458 214.625 44.1458Z" fill="#FFF80A"/>
</svg>
